# xmcd CD database file
#
# Track frame offsets:
#	150
#	36217
#	67126
#	98262
#	123829
#	152629
#	192702
#
# Disc length: 2820 seconds
#
# Revision: 0
# Processed by: cddbd v1.5.2PL0 Copyright (c) Steve Scherf et al.
# Submitted via: CDex 1.50
#
DISCID=580b0207
DTITLE=25-th Frame - Undo
DYEAR=2005
DGENRE=Jazz
TTITLE0=Undo
TTITLE1=Traffic
TTITLE2=Time
TTITLE3=Surrainbow
TTITLE4=Sunny girl
TTITLE5=Sandbox
TTITLE6=Glass Mill
EXTD=YEAR: 2005
EXTT0=
EXTT1=
EXTT2=
EXTT3=
EXTT4=
EXTT5=
EXTT6=
PLAYORDER=
